<svg width="109" height="30" viewBox="0 0 109 30" fill="none" xmlns="http://www.w3.org/2000/svg">
<path d="M7.10906 23.72H16.0691V29H0.269063V0.919999H7.10906V23.72ZM32.6116 29.28C29.9716 29.28 27.5449 28.6667 25.3316 27.44C23.1449 26.2133 21.3982 24.5067 20.0916 22.32C18.8116 20.1067 18.1716 17.6267 18.1716 14.88C18.1716 12.1333 18.8116 9.66667 20.0916 7.48C21.3982 5.29333 23.1449 3.58667 25.3316 2.36C27.5449 1.13333 29.9716 0.52 32.6116 0.52C35.2516 0.52 37.6649 1.13333 39.8516 2.36C42.0649 3.58667 43.7982 5.29333 45.0516 7.48C46.3316 9.66667 46.9716 12.1333 46.9716 14.88C46.9716 17.6267 46.3316 20.1067 45.0516 22.32C43.7716 24.5067 42.0382 26.2133 39.8516 27.44C37.6649 28.6667 35.2516 29.28 32.6116 29.28ZM32.6116 23.04C34.8516 23.04 36.6382 22.2933 37.9716 20.8C39.3316 19.3067 40.0116 17.3333 40.0116 14.88C40.0116 12.4 39.3316 10.4267 37.9716 8.96C36.6382 7.46666 34.8516 6.72 32.6116 6.72C30.3449 6.72 28.5316 7.45333 27.1716 8.92C25.8382 10.3867 25.1716 12.3733 25.1716 14.88C25.1716 17.36 25.8382 19.3467 27.1716 20.84C28.5316 22.3067 30.3449 23.04 32.6116 23.04ZM69.4169 9.8C68.9102 8.86667 68.1769 8.16 67.2169 7.68C66.2835 7.17333 65.1769 6.92 63.8969 6.92C61.6835 6.92 59.9102 7.65333 58.5769 9.12C57.2435 10.56 56.5769 12.4933 56.5769 14.92C56.5769 17.5067 57.2702 19.5333 58.6569 21C60.0702 22.44 62.0035 23.16 64.4569 23.16C66.1369 23.16 67.5502 22.7333 68.6969 21.88C69.8702 21.0267 70.7235 19.8 71.2569 18.2H62.5769V13.16H77.4569V19.52C76.9502 21.2267 76.0835 22.8133 74.8569 24.28C73.6569 25.7467 72.1235 26.9333 70.2569 27.84C68.3902 28.7467 66.2835 29.2 63.9369 29.2C61.1635 29.2 58.6835 28.6 56.4969 27.4C54.3369 26.1733 52.6435 24.48 51.4169 22.32C50.2169 20.16 49.6169 17.6933 49.6169 14.92C49.6169 12.1467 50.2169 9.68 51.4169 7.52C52.6435 5.33333 54.3369 3.64 56.4969 2.44C58.6569 1.21333 61.1235 0.599998 63.8969 0.599998C67.2569 0.599998 70.0835 1.41333 72.3769 3.04C74.6969 4.66667 76.2302 6.92 76.9769 9.8H69.4169ZM94.5256 29.28C91.8856 29.28 89.459 28.6667 87.2456 27.44C85.059 26.2133 83.3123 24.5067 82.0056 22.32C80.7256 20.1067 80.0856 17.6267 80.0856 14.88C80.0856 12.1333 80.7256 9.66667 82.0056 7.48C83.3123 5.29333 85.059 3.58667 87.2456 2.36C89.459 1.13333 91.8856 0.52 94.5256 0.52C97.1656 0.52 99.579 1.13333 101.766 2.36C103.979 3.58667 105.712 5.29333 106.966 7.48C108.246 9.66667 108.886 12.1333 108.886 14.88C108.886 17.6267 108.246 20.1067 106.966 22.32C105.686 24.5067 103.952 26.2133 101.766 27.44C99.579 28.6667 97.1656 29.28 94.5256 29.28ZM94.5256 23.04C96.7656 23.04 98.5523 22.2933 99.8856 20.8C101.246 19.3067 101.926 17.3333 101.926 14.88C101.926 12.4 101.246 10.4267 99.8856 8.96C98.5523 7.46666 96.7656 6.72 94.5256 6.72C92.259 6.72 90.4456 7.45333 89.0856 8.92C87.7523 10.3867 87.0856 12.3733 87.0856 14.88C87.0856 17.36 87.7523 19.3467 89.0856 20.84C90.4456 22.3067 92.259 23.04 94.5256 23.04Z" fill="#828282"/>
</svg>
